<svg xmlns="http://www.w3.org/2000/svg" width="1440" height="900" viewBox="0 0 1440 900">
<rect width="1440" height="900" fill="#f5f6fa"/><rect width="220" height="900" fill="#171a2b"/>
<text x="28" y="55" fill="#fff" font-family="Arial" font-size="22" font-weight="700">TRINITY</text><text x="28" y="78" fill="#aeb4c5" font-family="Arial" font-size="12">QMS · v2.4.1</text>
<g font-family="Arial" font-size="15" fill="#aeb4c5"><text x="55" y="140" fill="#ff6b35">⚙  Calibration</text><text x="55" y="190">Fleet</text><text x="55" y="235">AI Callout</text><text x="55" y="280">Inspectors</text><text x="55" y="325">OQE</text><text x="55" y="370">Drawings</text><text x="55" y="415">Audit</text></g>
<text x="260" y="58" fill="#4c5568" font-family="Arial" font-size="13" letter-spacing="2">CALIBRATION &amp; TOOL CONTROL</text><text x="260" y="110" fill="#101522" font-family="Arial" font-size="34" font-weight="700">Calibration Control</text>
<rect x="260" y="140" width="1140" height="70" rx="14" fill="#fff" stroke="#dfe3ea"/><text x="285" y="182" fill="#7b8495" font-family="Arial" font-size="15">Search equipment, asset numbers, serial numbers...</text><rect x="1245" y="155" width="130" height="42" rx="10" fill="#ff6b35"/><text x="1275" y="181" fill="#fff" font-family="Arial" font-size="14" font-weight="700">+ Register</text>
<g font-family="Arial"><rect x="260" y="235" width="1140" height="72" rx="14" fill="#fff" stroke="#dfe3ea"/><text x="285" y="262" fill="#687286" font-size="12">CALIBRATION HEALTH</text><text x="285" y="290" fill="#111827" font-size="23" font-weight="700">94% Valid</text><text x="500" y="290" fill="#059669" font-size="14">●  28 valid</text><text x="650" y="290" fill="#d97706" font-size="14">●  3 due soon</text><text x="810" y="290" fill="#dc2626" font-size="14">●  1 expired</text></g>
<rect x="260" y="335" width="1140" height="470" rx="16" fill="#fff" stroke="#dfe3ea"/><g font-family="Arial"><text x="285" y="375" fill="#687286" font-size="12" letter-spacing="1.5">EQUIPMENT REGISTER</text><text x="285" y="420" fill="#7b8495" font-size="12">ASSET</text><text x="480" y="420" fill="#7b8495" font-size="12">EQUIPMENT</text><text x="720" y="420" fill="#7b8495" font-size="12">CALIBRATION</text><text x="950" y="420" fill="#7b8495" font-size="12">STATUS</text><text x="1130" y="420" fill="#7b8495" font-size="12">ACTION</text>
<g font-size="14" fill="#111827"><text x="285" y="465">CAL-2024-EL01</text><text x="480" y="465">Digital Multimeter</text><text x="720" y="465">2025-08-18</text><text x="950" y="465" fill="#059669">Valid</text><text x="1130" y="465">View</text><text x="285" y="530">CAL-2024-UT03</text><text x="480" y="530">Ultrasonic Thickness Gauge</text><text x="720" y="530">2025-07-30</text><text x="950" y="530" fill="#d97706">Due Soon</text><text x="1130" y="530">View</text><text x="285" y="595">CAL-2024-EL02</text><text x="480" y="595">Clamp Meter</text><text x="720" y="595">2025-06-14</text><text x="950" y="595" fill="#dc2626">Expired</text><text x="1130" y="595">Resolve</text></g></g>
</svg>
